<svg version="1.1" xmlns="http://www.w3.org/2000/svg" xmlns:xlink="http://www.w3.org/1999/xlink" x="0px" y="0px" viewBox="0 0 300 300" style="enable-background:new 0 0 300 300;" xml:space="preserve" height="100%" width="80%"><g id="sim"><polygon id="face-1" points="235.8,113.5 235.8,108.6 235.8,103.7 235.8,98.8 230.9,98.8 230.9,93.9 
				226,93.9 226,89 226,84.1 226,79.2 221.1,79.2 221.1,74.3 216.2,74.3 216.2,69.4 211.3,69.4 206.4,69.4 206.4,64.5 201.5,64.5 
				196.6,64.5 191.7,64.5 191.7,59.6 186.8,59.6 181.9,59.6 177,59.6 177,54.7 172.1,54.7 167.2,54.7 162.3,54.7 157.3,54.7 
				152.5,54.7 147.5,54.7 142.7,54.7 142.7,59.6 137.8,59.6 132.8,59.6 127.9,59.6 123,59.6 118.1,59.6 118.1,64.5 113.2,64.5 
				108.3,64.5 108.3,69.4 103.4,69.4 103.4,74.3 98.5,74.3 98.5,79.2 93.6,79.2 93.6,84.1 88.7,84.1 88.7,89 83.8,89 83.8,93.9 
				78.9,93.9 78.9,98.8 78.9,103.7 78.9,108.6 78.9,113.5 78.9,118.4 74,118.4 74,123.3 74,128.2 74,133.1 74,138 74,142.9 
				74,147.8 74,152.8 69.1,152.8 64.2,152.8 59.3,152.8 59.3,157.6 59.3,162.5 59.3,167.5 59.3,172.3 59.3,177.3 59.3,182.2 
				64.2,182.2 69.1,182.2 74,182.2 78.9,182.2 83.8,182.2 83.8,187.1 83.8,192 88.7,192 93.6,192 93.6,196.9 98.5,196.9 98.5,201.8 
				103.4,201.8 108.3,201.8 108.3,206.7 113.2,206.7 118.1,206.7 123,206.7 127.9,206.7 132.8,206.7 137.8,206.7 137.8,211.6 
				137.8,216.5 142.7,216.5 147.5,216.5 152.5,216.5 157.3,216.5 162.3,216.5 162.3,211.6 162.3,206.7 167.2,206.7 172.1,206.7 
				177,206.7 181.9,206.7 186.8,206.7 191.7,206.7 196.6,206.7 201.5,206.7 206.4,206.7 206.4,201.8 211.3,201.8 211.3,196.9 
				216.2,196.9 216.2,192 221.1,192 221.1,187.1 226,187.1 226,182.2 230.9,182.2 230.9,177.3 235.8,177.3 235.8,172.3 235.8,167.5 
				240.7,167.5 240.7,162.5 240.7,157.6 240.7,152.8 240.7,147.8 240.7,142.9 240.7,138 240.7,133.1 240.7,128.2 240.7,123.3 
				240.7,118.4 240.7,113.5 			" class="skin" xmlns="http://www.w3.org/2000/svg"><title>#face-1.face.skin</title></polygon><g id="character"><polygon id="hairstyle-8" points="255.4,138 255.4,133.1 250.5,133.1 250.5,128.2 250.5,123.3 250.5,118.4 
				250.5,113.5 250.5,108.6 250.5,103.7 250.5,98.8 250.5,93.9 250.5,89 245.6,89 245.6,84.1 240.7,84.1 240.7,79.2 235.8,79.2 
				235.8,74.3 230.9,74.3 230.9,69.4 226,69.4 226,64.5 226,59.6 221.1,59.6 221.1,54.7 216.2,54.7 211.3,54.7 211.3,49.8 
				206.4,49.8 201.5,49.8 196.6,49.8 191.7,49.8 186.8,49.8 181.9,49.8 177,49.8 172.1,49.8 167.2,49.8 162.3,49.8 157.3,49.8 
				152.5,49.8 147.5,49.8 142.7,49.8 137.8,49.8 132.8,49.8 132.8,54.7 127.9,54.7 123,54.7 123,59.6 118.1,59.6 118.1,64.5 
				113.2,64.5 108.3,64.5 103.4,64.5 98.5,64.5 93.6,64.5 88.7,64.5 83.8,64.5 78.9,64.5 78.9,69.4 74,69.4 74,74.3 69.1,74.3 
				69.1,79.2 69.1,84.1 64.2,84.1 64.2,89 59.3,89 59.3,93.9 59.3,98.8 59.3,103.7 59.3,108.6 59.3,113.5 59.3,118.4 59.3,123.3 
				54.4,123.3 54.4,128.2 49.5,128.2 49.5,133.1 44.6,133.1 44.6,138 44.6,142.9 39.7,142.9 39.7,147.8 39.7,152.8 39.7,157.6 
				39.7,162.5 39.7,167.5 39.7,172.3 39.7,177.3 39.7,182.2 39.7,187.1 39.7,192 39.7,196.9 39.7,201.8 44.6,201.8 44.6,206.7 
				44.6,211.6 49.5,211.6 49.5,216.5 49.5,221.4 54.4,221.4 54.4,226.3 54.4,231.2 54.4,236.1 59.3,236.1 59.3,241 59.3,245.9 
				64.2,245.9 64.2,250.8 69.1,250.8 74,250.8 78.9,250.8 83.8,250.8 88.7,250.8 88.7,245.9 93.6,245.9 98.5,245.9 98.5,241 
				103.4,241 103.4,236.1 108.3,236.1 108.3,231.2 113.2,231.2 113.2,226.3 118.1,226.3 118.1,221.4 123,221.4 123,216.5 
				127.9,216.5 132.8,216.5 137.8,216.5 137.8,211.6 137.8,206.7 132.8,206.7 127.9,206.7 123,206.7 118.1,206.7 113.2,206.7 
				108.3,206.7 108.3,201.8 103.4,201.8 98.5,201.8 98.5,196.9 93.6,196.9 93.6,192 88.7,192 83.8,192 83.8,187.1 83.8,182.2 
				78.9,182.2 74,182.2 69.1,182.2 64.2,182.2 64.2,177.3 64.2,172.3 64.2,167.5 64.2,162.5 64.2,157.6 64.2,152.8 69.1,152.8 
				74,152.8 78.9,152.8 83.8,152.8 88.7,152.8 88.7,147.8 88.7,142.9 88.7,138 88.7,133.1 88.7,128.2 88.7,123.3 88.7,118.4 
				88.7,113.5 88.7,108.6 93.6,108.6 93.6,103.7 98.5,103.7 98.5,98.8 103.4,98.8 108.3,98.8 113.2,98.8 113.2,93.9 118.1,93.9 
				123,93.9 127.9,93.9 132.8,93.9 137.8,93.9 142.7,93.9 147.5,93.9 152.5,93.9 157.3,93.9 162.3,93.9 167.2,93.9 172.1,93.9 
				177,93.9 177,98.8 181.9,98.8 181.9,103.7 186.8,103.7 191.7,103.7 191.7,108.6 196.6,108.6 201.5,108.6 206.4,108.6 
				206.4,113.5 211.3,113.5 216.2,113.5 221.1,113.5 221.1,118.4 226,118.4 226,123.3 226,128.2 226,133.1 226,138 226,142.9 
				226,147.8 226,152.8 230.9,152.8 235.8,152.8 235.8,157.6 235.8,162.5 235.8,167.5 235.8,172.3 235.8,177.3 230.9,177.3 
				230.9,182.2 226,182.2 226,187.1 221.1,187.1 221.1,192 216.2,192 216.2,196.9 211.3,196.9 211.3,201.8 206.4,201.8 206.4,206.7 
				201.5,206.7 196.6,206.7 191.7,206.7 186.8,206.7 181.9,206.7 177,206.7 172.1,206.7 167.2,206.7 162.3,206.7 162.3,211.6 
				162.3,216.5 167.2,216.5 172.1,216.5 177,216.5 181.9,216.5 181.9,221.4 186.8,221.4 191.7,221.4 191.7,226.3 196.6,226.3 
				196.6,231.2 196.6,236.1 201.5,236.1 201.5,241 206.4,241 206.4,245.9 211.3,245.9 216.2,245.9 216.2,250.8 221.1,250.8 
				226,250.8 230.9,250.8 235.8,250.8 240.7,250.8 240.7,245.9 245.6,245.9 245.6,241 245.6,236.1 245.6,231.2 245.6,226.3 
				250.5,226.3 250.5,221.4 250.5,216.5 255.4,216.5 255.4,211.6 255.4,206.7 260.3,206.7 260.3,201.8 260.3,196.9 260.3,192 
				260.3,187.1 260.3,182.2 260.3,177.3 260.3,172.3 260.3,167.5 260.3,162.5 260.3,157.6 260.3,152.8 260.3,147.8 260.3,142.9 
				260.3,138 			" class="hair" xmlns="http://www.w3.org/2000/svg"><title>#hairstyle-8.hairstyle.hair</title></polygon><g id="eyebrows-1" class="eyebrows hair" xmlns="http://www.w3.org/2000/svg">
				<polygon id="right-eyebrow-1" points="211.3,108.6 206.4,108.6 201.5,108.6 196.6,108.6 191.7,108.6 
					186.8,108.6 186.8,113.5 181.9,113.5 181.9,118.4 181.9,123.3 186.8,123.3 191.7,123.3 191.7,118.4 196.6,118.4 201.5,118.4 
					201.5,113.5 206.4,113.5 211.3,113.5 216.2,113.5 216.2,108.6 				" class="eyebrows hair"><title>#right-eyebrow-1.eyebrows.hair</title></polygon>
				<polygon id="left-eyebrow-1" points="152.5,108.6 147.5,108.6 142.7,108.6 137.8,108.6 132.8,108.6 
					127.9,108.6 127.9,113.5 123,113.5 123,118.4 123,123.3 127.9,123.3 132.8,123.3 132.8,118.4 137.8,118.4 142.7,118.4 
					142.7,113.5 147.5,113.5 152.5,113.5 157.3,113.5 157.3,108.6 				" class="eyebrows hair"><title>#left-eyebrow-1.eyebrows.hair</title></polygon>
			<title>#eyebrows-1.eyebrows.hair</title></g><g id="character" class="hair"/></g><g id="eyes-2" class="eyes" xmlns="http://www.w3.org/2000/svg">
				<polygon id="right-eye-2" points="216.2,138 211.3,138 211.3,142.9 206.4,142.9 201.5,142.9 196.6,142.9 
					191.7,142.9 186.8,142.9 186.8,147.8 186.8,152.8 191.7,152.8 191.7,147.8 196.6,147.8 196.6,152.8 201.5,152.8 201.5,147.8 
					206.4,147.8 206.4,152.8 211.3,152.8 211.3,147.8 216.2,147.8 216.2,142.9 221.1,142.9 221.1,138 				" class="eyes"><title>#right-eye-2.eyes</title></polygon>
				<polygon id="left-eye-2" points="157.3,138 152.5,138 152.5,142.9 147.5,142.9 142.7,142.9 137.8,142.9 
					132.8,142.9 127.9,142.9 127.9,147.8 127.9,152.8 132.8,152.8 132.8,147.8 137.8,147.8 137.8,152.8 142.7,152.8 142.7,147.8 
					147.5,147.8 147.5,152.8 152.5,152.8 152.5,147.8 157.3,147.8 157.3,142.9 162.3,142.9 162.3,138 				" class="eyes"><title>#left-eye-2.eyes</title></polygon>
			<title>#eyes-2.eyes</title></g><polygon id="mouth-1" points="186.8,177.3 181.9,177.3 177,177.3 172.1,177.3 167.2,177.3 162.3,177.3 
				157.3,177.3 152.5,177.3 152.5,182.2 157.3,182.2 157.3,187.1 162.3,187.1 162.3,192 167.2,192 172.1,192 177,192 181.9,192 
				181.9,187.1 186.8,187.1 186.8,182.2 191.7,182.2 191.7,177.3 			" class="mouth" xmlns="http://www.w3.org/2000/svg"><title>#mouth-1.mouth</title></polygon><polygon id="nose-1" points="177,157.4 177,152.5 172.1,152.5 172.1,157.4 167.2,157.4 167.2,162.3 
				167.2,167.2 172.1,167.2 177,167.2 182,167.2 182,162.3 182,157.4 			" class="nose" xmlns="http://www.w3.org/2000/svg"><title>#nose-1.nose</title></polygon><polygon id="torso-1" points="177.9,220.9 177.9,217.6 174.7,217.6 174.7,214.3 171.4,214.3 168.1,214.3 
				164.8,214.3 161.5,214.3 158.2,214.3 154.9,214.3 151.6,214.3 148.3,214.3 145,214.3 141.8,214.3 138.5,214.3 135.2,214.3 
				131.9,214.3 128.6,214.3 125.3,214.3 122,214.3 118.7,214.3 118.7,217.6 115.4,217.6 115.4,220.9 115.4,224.2 115.4,227.5 
				115.4,230.8 115.4,234.1 115.4,237.4 115.4,240.7 115.4,244 115.4,247.2 115.4,250.5 118.7,250.5 122,250.5 125.3,250.5 
				128.6,250.5 131.9,250.5 135.2,250.5 138.5,250.5 141.8,250.5 145,250.5 148.3,250.5 151.6,250.5 154.9,250.5 158.2,250.5 
				161.5,250.5 164.8,250.5 168.1,250.5 171.4,250.5 174.7,250.5 177.9,250.5 181.2,250.5 181.2,247.2 181.2,244 181.2,240.7 
				181.2,237.4 181.2,234.1 181.2,230.8 181.2,227.5 181.2,224.2 181.2,220.9 			" class="torso skin" xmlns="http://www.w3.org/2000/svg"><title>#torso-1.torso.skin</title></polygon><g id="arms-1" class="skin" xmlns="http://www.w3.org/2000/svg">
				<polygon id="right-arm-1" points="184.5,227.5 184.5,224.2 181.2,224.2 181.2,220.9 177.9,220.9 
					177.9,224.2 177.9,227.5 177.9,230.8 177.9,234.1 177.9,237.4 177.9,240.7 177.9,244 177.9,247.2 177.9,250.5 177.9,253.8 
					177.9,257.1 177.9,260.4 181.2,260.4 184.5,260.4 184.5,257.1 187.8,257.1 187.8,253.8 187.8,250.5 187.8,247.2 187.8,244 
					187.8,240.7 187.8,237.4 187.8,234.1 187.8,230.8 187.8,227.5 				" class="arms skin"><title>#right-arm-1.arms.skin</title></polygon>
				<polygon id="left-arm-1" points="115.4,217.6 115.4,220.9 112.2,220.9 108.9,220.9 108.9,224.2 105.6,224.2 
					105.6,227.5 105.6,230.8 105.6,234.1 105.6,237.4 105.6,240.7 105.6,244 105.6,247.2 105.6,250.5 105.6,253.8 105.6,257.1 
					108.9,257.1 108.9,260.4 108.9,263.7 112.2,263.7 115.4,263.7 118.7,263.7 118.7,260.4 118.7,257.1 118.7,253.8 118.7,250.5 
					118.7,247.2 118.7,244 118.7,240.7 118.7,237.4 118.7,234.1 118.7,230.8 118.7,227.5 118.7,224.2 118.7,220.9 118.7,217.6 				
					" class="arms skin"><title>#left-arm-1.arms.skin</title></polygon>
			<title>#arms-1.arms.skin</title></g><g id="top-1" class="top" xmlns="http://www.w3.org/2000/svg">
				<polygon id="right-sleeve-1" points="184.5,227.5 184.5,224.2 181.2,224.2 181.2,220.9 177.9,220.9 
					177.9,224.2 177.9,227.5 177.9,230.8 177.9,234.1 177.9,237.4 177.9,240.7 177.9,244 181.2,244 184.5,244 187.8,244 
					187.8,240.7 187.8,237.4 187.8,234.1 187.8,230.8 187.8,227.5 				" class="sleeves"><title>#right-sleeve-1.sleeves.top</title></polygon>
				<polygon id="left-sleeve-1" points="115.4,217.6 115.4,220.9 112.2,220.9 108.9,220.9 108.9,224.2 
					105.6,224.2 105.6,227.5 105.6,230.8 105.6,234.1 105.6,237.4 105.6,240.7 105.6,244 108.9,244 112.2,244 115.4,244 118.7,244 
					118.7,240.7 118.7,237.4 118.7,234.1 118.7,230.8 118.7,227.5 118.7,224.2 118.7,220.9 118.7,217.6 				" class="sleeves"><title>#left-sleeve-1.sleeves.top</title></polygon>
				<polygon id="top-body-1" points="177.9,220.9 177.9,217.6 174.7,217.6 174.7,214.3 171.4,214.3 168.1,214.3 
					164.8,214.3 161.5,214.3 158.2,214.3 154.9,214.3 151.6,214.3 148.3,214.3 145,214.3 141.8,214.3 138.5,214.3 135.2,214.3 
					131.9,214.3 128.6,214.3 125.3,214.3 122,214.3 118.7,214.3 118.7,217.6 115.4,217.6 115.4,220.9 115.4,224.2 115.4,227.5 
					115.4,230.8 115.4,234.1 115.4,237.4 115.4,240.7 115.4,244 115.4,247.2 115.4,250.5 118.7,250.5 122,250.5 125.3,250.5 
					128.6,250.5 131.9,250.5 135.2,250.5 138.5,250.5 141.8,250.5 145,250.5 148.3,250.5 151.6,250.5 154.9,250.5 158.2,250.5 
					161.5,250.5 164.8,250.5 168.1,250.5 171.4,250.5 174.7,250.5 177.9,250.5 181.2,250.5 181.2,247.2 181.2,244 181.2,240.7 
					181.2,237.4 181.2,234.1 181.2,230.8 181.2,227.5 181.2,224.2 181.2,220.9 				" class=""><title>#top-body-1.top</title></polygon>
			<title>#top-1.top</title></g><g id="topdesign-1" class="topdesign" xmlns="http://www.w3.org/2000/svg">
				<polygon points="168.6,223.2 168.6,225.6 168.6,228.1 168.6,230.6 171.1,230.6 171.1,228.1 171.1,225.6 
					171.1,223.2 				"/>
				<polygon points="166.2,233.1 163.7,233.1 161.2,233.1 161.2,235.5 163.7,235.5 166.2,235.5 166.2,238 
					166.2,240.5 168.6,240.5 168.6,238 168.6,235.5 168.6,233.1 168.6,230.6 166.2,230.6 				"/>
				<polygon style="fill:#ED1C24;" points="168.6,225.6 168.6,223.2 166.2,223.2 163.7,223.2 163.7,225.6 
					166.2,225.6 166.2,228.1 166.2,230.6 168.6,230.6 168.6,228.1 				"/>
				<rect x="163.7" y="240.5" width="2.5" height="2.5"/>
				<path style="fill:#FFFFFF;" d="M166.2,235.5h-2.5h-2.5v-2.5h-2.5v-2.5h-2.5v-2.5h-2.5v2.5h-2.5h-2.5v-2.5h-2.5
					v-2.5v-2.5h-2.5v-2.5h-2.5h-2.5h-2.5H134v2.5v2.5h-2.5v2.5v2.5h2.5v2.5h-2.5v2.5h2.5v2.5h-2.5v2.5h2.5v2.5h2.5h2.5v2.5h2.5h2.5
					h2.5h2.5h2.5h2.5h2.5h2.5V243h2.5h2.5v-2.5h2.5V238V235.5z M156.3,233.1v2.5v2.5h-2.5v-2.5v-2.5H156.3z M143.9,238h-2.5v-2.5
					v-2.5h2.5v2.5V238z M146.4,238h2.5h2.5v2.5h-2.5h-2.5V238z"/>
				<polygon style="fill:#ED1C24;" points="163.7,228.1 161.2,228.1 161.2,230.6 161.2,233.1 163.7,233.1 
					166.2,233.1 166.2,230.6 163.7,230.6 				"/>
				<polygon points="161.2,225.6 161.2,228.1 163.7,228.1 163.7,230.6 166.2,230.6 166.2,228.1 166.2,225.6 
					163.7,225.6 163.7,223.2 161.2,223.2 				"/>
				<polygon points="163.7,220.7 166.2,220.7 166.2,223.2 168.6,223.2 168.6,220.7 168.6,218.2 166.2,218.2 
					163.7,218.2 161.2,218.2 158.7,218.2 158.7,220.7 161.2,220.7 				"/>
				<polygon points="158.7,243 158.7,245.4 161.2,245.4 163.7,245.4 163.7,243 161.2,243 				"/>
				<polygon points="161.2,228.1 158.7,228.1 156.3,228.1 156.3,230.6 158.7,230.6 158.7,233.1 161.2,233.1 
					161.2,230.6 				"/>
				<polygon style="fill:#ED1C24;" points="161.2,228.1 161.2,225.6 161.2,223.2 158.7,223.2 156.3,223.2 
					156.3,225.6 156.3,228.1 158.7,228.1 				"/>
				<polygon style="fill:#FFFFFF;" points="161.2,223.2 163.7,223.2 166.2,223.2 166.2,220.7 163.7,220.7 
					161.2,220.7 158.7,220.7 158.7,223.2 				"/>
				<rect x="156.3" y="220.7" width="2.5" height="2.5"/>
				<polygon points="153.8,245.4 151.3,245.4 148.8,245.4 146.4,245.4 143.9,245.4 141.4,245.4 138.9,245.4 
					138.9,247.9 141.4,247.9 143.9,247.9 146.4,247.9 148.8,247.9 151.3,247.9 153.8,247.9 156.3,247.9 158.7,247.9 158.7,245.4 
					156.3,245.4 				"/>
				<polygon points="153.8,238 156.3,238 156.3,235.5 156.3,233.1 153.8,233.1 153.8,235.5 				"/>
				<polygon points="156.3,223.2 153.8,223.2 151.3,223.2 151.3,225.6 153.8,225.6 153.8,228.1 156.3,228.1 
					156.3,225.6 				"/>
				<polygon points="153.8,220.7 156.3,220.7 156.3,218.2 153.8,218.2 151.3,218.2 151.3,220.7 				"/>
				<polygon points="151.3,240.5 151.3,238 148.8,238 146.4,238 146.4,240.5 148.8,240.5 				"/>
				<polygon points="148.8,228.1 148.8,230.6 151.3,230.6 153.8,230.6 153.8,228.1 151.3,228.1 				"/>
				<polygon style="fill:#ED1C24;" points="148.8,225.6 148.8,228.1 151.3,228.1 153.8,228.1 153.8,225.6 
					151.3,225.6 151.3,223.2 153.8,223.2 156.3,223.2 156.3,220.7 153.8,220.7 151.3,220.7 148.8,220.7 148.8,223.2 				"/>
				<rect x="148.8" y="218.2" width="2.5" height="2.5"/>
				<rect x="146.4" y="225.6" width="2.5" height="2.5"/>
				<polygon points="146.4,223.2 146.4,225.6 148.8,225.6 148.8,223.2 148.8,220.7 146.4,220.7 143.9,220.7 
					143.9,223.2 				"/>
				<polygon points="141.4,233.1 141.4,235.5 141.4,238 143.9,238 143.9,235.5 143.9,233.1 				"/>
				<rect x="136.5" y="243" width="2.5" height="2.5"/>
				<polygon points="138.9,220.7 141.4,220.7 143.9,220.7 143.9,218.2 141.4,218.2 138.9,218.2 136.5,218.2 
					134,218.2 134,220.7 136.5,220.7 				"/>
				<rect x="134" y="243" width="2.5" height="2.5"/>
				<rect x="131.5" y="240.5" width="2.5" height="2.5"/>
				<polygon points="134,238 134,235.5 131.5,235.5 131.5,233.1 134,233.1 134,230.6 131.5,230.6 131.5,228.1 
					131.5,225.6 129,225.6 129,228.1 129,230.6 129,233.1 129,235.5 129,238 129,240.5 131.5,240.5 131.5,238 				"/>
				<polygon points="134,223.2 134,220.7 131.5,220.7 131.5,223.2 131.5,225.6 134,225.6 				"/>
			<title>#topdesign-1.topdesign</title></g><g id="legs-1" class="skin" xmlns="http://www.w3.org/2000/svg">
				<polygon id="right-leg-1" points="177.9,250.5 174.7,250.5 171.4,250.5 168.1,250.5 164.8,250.5 
					161.5,250.5 158.2,250.5 154.9,250.5 151.6,250.5 151.6,253.8 151.6,257.1 151.6,260.4 154.9,260.4 158.2,260.4 158.2,263.7 
					158.2,267 158.2,270.3 158.2,273.5 158.2,276.8 161.5,276.8 164.8,276.8 168.1,276.8 171.4,276.8 174.7,276.8 177.9,276.8 
					181.2,276.8 181.2,273.5 181.2,270.3 181.2,267 181.2,263.7 181.2,260.4 181.2,257.1 181.2,253.8 181.2,250.5 				" class="legs skin"><title>#right-leg-1.legs.skin</title></polygon>
				<polygon id="left-leg-1" points="148.3,250.5 145,250.5 141.8,250.5 138.5,250.5 135.2,250.5 131.9,250.5 
					128.6,250.5 125.3,250.5 122,250.5 118.7,250.5 115.4,250.5 115.4,253.8 115.4,257.1 115.4,260.4 115.4,263.7 115.4,267 
					115.4,270.3 115.4,273.5 115.4,276.8 118.7,276.8 122,276.8 125.3,276.8 128.6,276.8 131.9,276.8 135.2,276.8 138.5,276.8 
					138.5,273.5 138.5,270.3 138.5,267 138.5,263.7 138.5,260.4 141.8,260.4 145,260.4 148.3,260.4 151.6,260.4 151.6,257.1 
					151.6,253.8 151.6,250.5 				" class="legs skin"><title>#left-leg-1.legs.skin</title></polygon>
			<title>#legs-1.legs.skin</title></g><g id="bottoms-2" class="bottoms" xmlns="http://www.w3.org/2000/svg">
				<polygon id="right-bottom-2" points="177.9,250.5 174.7,250.5 171.4,250.5 168.1,250.5 164.8,250.5 
					161.5,250.5 158.2,250.5 154.9,250.5 151.6,250.5 151.6,253.8 151.6,257.1 151.6,260.4 154.9,260.4 158.2,260.4 158.2,263.7 
					158.2,267 161.5,267 164.8,267 168.1,267 171.4,267 174.7,267 177.9,267 181.2,267 181.2,263.7 181.2,260.4 181.2,257.1 
					181.2,253.8 181.2,250.5 				" class="bottoms"><title>#right-bottom-2.bottoms</title></polygon>
				<polygon id="left-bottom-2" points="148.3,250.5 145,250.5 141.8,250.5 138.5,250.5 135.2,250.5 
					131.9,250.5 128.6,250.5 125.3,250.5 122,250.5 118.7,250.5 115.4,250.5 115.4,253.8 115.4,257.1 115.4,260.4 115.4,263.7 
					115.4,267 118.7,267 122,267 125.3,267 128.6,267 131.9,267 135.2,267 138.5,267 138.5,263.7 138.5,260.4 141.8,260.4 
					145,260.4 148.3,260.4 151.6,260.4 151.6,257.1 151.6,253.8 151.6,250.5 				" class="bottoms"><title>#left-bottom-2.bottoms</title></polygon>
			<title>#bottoms-2.bottoms</title></g><g id="feet-1" class="feet skin" xmlns="http://www.w3.org/2000/svg">
				<polygon id="right-foot-1" points="187.8,276.8 184.5,276.8 181.2,276.8 177.9,276.8 174.7,276.8 
					171.4,276.8 168.1,276.8 164.8,276.8 161.5,276.8 158.2,276.8 158.2,280.1 158.2,283.4 158.2,286.7 158.2,290 161.5,290 
					164.8,290 168.1,290 171.4,290 174.7,290 177.9,290 181.2,290 184.5,290 187.8,290 191.1,290 191.1,286.7 191.1,283.4 
					191.1,280.1 191.1,276.8 				" class="feet skin"><title>#right-foot-1.feet.skin</title></polygon>
				<polygon id="left-foot-1" points="145,276.8 141.8,276.8 138.5,276.8 135.2,276.8 131.9,276.8 128.6,276.8 
					125.3,276.8 122,276.8 118.7,276.8 115.4,276.8 115.4,280.1 115.4,283.4 115.4,286.7 115.4,290 118.7,290 122,290 125.3,290 
					128.6,290 131.9,290 135.2,290 138.5,290 141.8,290 145,290 148.3,290 148.3,286.7 148.3,283.4 148.3,280.1 148.3,276.8 				" class="feet skin"><title>#left-foot-1.feet.skin</title></polygon>
			<title>#feet-1.feet.skin</title></g><g id="shoes-1" class="shoes" xmlns="http://www.w3.org/2000/svg">
				<g id="right-shoe-1" class="shoes">
					<polygon id="right-shoe-sole-1" points="187.8,286.7 184.5,286.7 181.2,286.7 177.9,286.7 174.7,286.7 
						171.4,286.7 168.1,286.7 164.8,286.7 161.5,286.7 158.2,286.7 158.2,290 161.5,290 164.8,290 168.1,290 171.4,290 174.7,290 
						177.9,290 181.2,290 184.5,290 187.8,290 191.1,290 191.1,286.7 					" class="shoes shoe-soles"><title>#right-shoe-sole-1.shoes.shoe-soles</title></polygon>
					<polygon id="right-shoe-base-1" points="187.8,276.8 184.5,276.8 181.2,276.8 177.9,276.8 174.7,276.8 
						171.4,276.8 168.1,276.8 164.8,276.8 161.5,276.8 158.2,276.8 158.2,280.1 158.2,283.4 158.2,286.7 161.5,286.7 164.8,286.7 
						168.1,286.7 171.4,286.7 174.7,286.7 177.9,286.7 181.2,286.7 184.5,286.7 187.8,286.7 191.1,286.7 191.1,283.4 191.1,280.1 
						191.1,276.8 					" class="shoes shoe-bases"><title>#right-shoe-base-1.shoes.shoe-bases</title></polygon>
					<g id="right-shoe-laces-1" class="shoes shoe-laces">
						<polygon points="181.2,276.8 181.2,280.1 181.2,283.4 184.5,283.4 184.5,280.1 
							184.5,276.8 						"/>
						<polygon points="174.7,280.1 174.7,283.4 177.9,283.4 177.9,280.1 177.9,276.8 
							174.7,276.8 						"/>
					<title>#right-shoe-laces-1.shoes.shoe-laces</title></g>
				<title>#right-shoe-1.shoes</title></g>
				<g id="left-shoe-1" class="shoes">
					<polygon id="left-shoe-sole-1" points="145,286.7 141.8,286.7 138.5,286.7 135.2,286.7 131.9,286.7 
						128.6,286.7 125.3,286.7 122,286.7 118.7,286.7 115.4,286.7 115.4,290 118.7,290 122,290 125.3,290 128.6,290 131.9,290 
						135.2,290 138.5,290 141.8,290 145,290 148.3,290 148.3,286.7 					" class="shoes shoe-soles"><title>#left-shoe-sole-1.shoes.shoe-soles</title></polygon>
					<polygon id="left-shoe-base-1" points="145,276.8 141.8,276.8 138.5,276.8 135.2,276.8 131.9,276.8 
						128.6,276.8 125.3,276.8 122,276.8 118.7,276.8 115.4,276.8 115.4,280.1 115.4,283.4 115.4,286.7 118.7,286.7 122,286.7 
						125.3,286.7 128.6,286.7 131.9,286.7 135.2,286.7 138.5,286.7 141.8,286.7 145,286.7 148.3,286.7 148.3,283.4 148.3,280.1 
						148.3,276.8 					" class="shoes shoe-bases"><title>#left-shoe-base-1.shoes.shoe-bases</title></polygon>
					<g id="left-shoe-laces-1" class="shoes shoe-laces">
						<polygon points="138.5,276.8 138.5,280.1 138.5,283.4 141.8,283.4 141.8,280.1 141.8,276.8 
													"/>
						<polygon points="131.9,280.1 131.9,283.4 135.2,283.4 135.2,280.1 135.2,276.8 131.9,276.8 
													"/>
					<title>#left-shoe-laces-1.shoes.shoe-laces</title></g>
				<title>#left-shoe-1.shoes</title></g>
			<title>#shoes-1.shoes</title></g></g><style>
    * {
      stroke: black;
      stroke-width: 1px;
    }
    .shade{
        fill:rgba(0,0,0,0.2);
    }.skin {
  fill: rgba(217, 162, 121, 1);
}

.hair {
  fill: rgba(101, 67, 44, 1);
}

.mouth {
  fill: white;
}

.nose {
  fill: rgba(217, 162, 121, 1);
}

.background {
  background: radial-gradient(circle farthest-side at 0% 50%,#fb1 23.5%,rgba(240,166,17,0) 0)21px 30px,
radial-gradient(circle farthest-side at 0% 50%,#B71 24%,rgba(240,166,17,0) 0)19px 30px,
linear-gradient(#fb1 14%,rgba(240,166,17,0) 0, rgba(240,166,17,0) 85%,#fb1 0)0 0,
linear-gradient(150deg,#fb1 24%,#B71 0,#B71 26%,rgba(240,166,17,0) 0,rgba(240,166,17,0) 74%,#B71 0,#B71 76%,#fb1 0)0 0,
linear-gradient(30deg,#fb1 24%,#B71 0,#B71 26%,rgba(240,166,17,0) 0,rgba(240,166,17,0) 74%,#B71 0,#B71 76%,#fb1 0)0 0,
linear-gradient(90deg,#B71 2%,#fb1 0,#fb1 98%,#B71 0%)0 0 #fb1;
  background-size: 40px 60px;
}</style><style></style></svg>